<svg width="1200" height="675" viewBox="0 0 1200 675" xmlns="http://www.w3.org/2000/svg">
  <defs>
    <linearGradient id="lineGrad" x1="0" y1="0" x2="0" y2="1">
      <stop offset="0%" stop-color="#fcba28" stop-opacity="0.3"/>
      <stop offset="100%" stop-color="#fcba28" stop-opacity="0"/>
    </linearGradient>
    <linearGradient id="lineGrad2" x1="0" y1="0" x2="0" y2="1">
      <stop offset="0%" stop-color="#fc7428" stop-opacity="0.25"/>
      <stop offset="100%" stop-color="#fc7428" stop-opacity="0"/>
    </linearGradient>
    <linearGradient id="bgB2b" x1="0" y1="0" x2="1" y2="1">
      <stop offset="0%" stop-color="#0d0d0d"/>
      <stop offset="100%" stop-color="#0d0d10"/>
    </linearGradient>
  </defs>

  <!-- Background -->
  <rect width="1200" height="675" fill="url(#bgB2b)"/>

  <!-- Top navigation bar -->
  <rect x="0" y="0" width="1200" height="52" fill="#1e1e1e" stroke-width="0"/>
  <line x1="0" y1="52" x2="1200" y2="52" stroke="#383c44" stroke-width="1"/>

  <!-- Nav items -->
  <text x="28" y="32" font-family="Inter, system-ui, sans-serif" font-size="14" fill="#f9f4da" font-weight="700">SupplyOS</text>
  <text x="160" y="32" font-family="Inter, system-ui, sans-serif" font-size="12" fill="#fcba28" font-weight="500">Dashboard</text>
  <line x1="160" y1="52" x2="228" y2="52" stroke="#fcba28" stroke-width="2"/>
  <text x="244" y="32" font-family="Inter, system-ui, sans-serif" font-size="12" fill="#909498">Inventory</text>
  <text x="328" y="32" font-family="Inter, system-ui, sans-serif" font-size="12" fill="#909498">Shipments</text>
  <text x="424" y="32" font-family="Inter, system-ui, sans-serif" font-size="12" fill="#909498">Reports</text>
  <text x="500" y="32" font-family="Inter, system-ui, sans-serif" font-size="12" fill="#909498">Suppliers</text>

  <!-- Right nav items -->
  <rect x="1072" y="14" width="100" height="28" rx="6" fill="#fcba28"/>
  <text x="1100" y="33" font-family="Inter, system-ui, sans-serif" font-size="12" fill="#0d0d0d" font-weight="600">Export ↓</text>

  <!-- Date range -->
  <rect x="904" y="14" width="148" height="28" rx="6" fill="#262522" stroke="#383c44" stroke-width="1"/>
  <text x="920" y="33" font-family="Inter, system-ui, sans-serif" font-size="11" fill="#909498">Jan – Mar 2024</text>
  <text x="1032" y="33" font-family="Inter, system-ui, sans-serif" font-size="11" fill="#fcba28">▾</text>

  <!-- Page header -->
  <text x="28" y="84" font-family="Inter, system-ui, sans-serif" font-size="20" fill="#f9f4da" font-weight="700">Supply Chain Overview</text>
  <text x="28" y="104" font-family="Inter, system-ui, sans-serif" font-size="12" fill="#909498">Real-time logistics performance · Q1 2024</text>

  <!-- KPI Cards row -->
  <!-- KPI 1: On-Time Delivery -->
  <rect x="28" y="120" width="260" height="96" rx="6" fill="#1e1e1e" stroke="#383c44" stroke-width="1"/>
  <text x="48" y="146" font-family="Inter, system-ui, sans-serif" font-size="10" fill="#909498" letter-spacing="1.5">ON-TIME DELIVERY</text>
  <text x="48" y="188" font-family="Inter, system-ui, sans-serif" font-size="40" fill="#fcba28" font-weight="800">97.2</text>
  <text x="170" y="178" font-family="Inter, system-ui, sans-serif" font-size="16" fill="#fcba28" font-weight="600">%</text>
  <text x="200" y="188" font-family="Inter, system-ui, sans-serif" font-size="12" fill="#fcba28" font-weight="500">↑ 3.1%</text>
  <rect x="48" y="202" width="220" height="4" rx="2" fill="#383c44"/>
  <rect x="48" y="202" width="214" height="4" rx="2" fill="#fcba28" opacity="0.8"/>

  <!-- KPI 2: Inventory Turnover -->
  <rect x="308" y="120" width="260" height="96" rx="6" fill="#1e1e1e" stroke="#383c44" stroke-width="1"/>
  <text x="328" y="146" font-family="Inter, system-ui, sans-serif" font-size="10" fill="#909498" letter-spacing="1.5">INVENTORY TURNOVER</text>
  <text x="328" y="188" font-family="Inter, system-ui, sans-serif" font-size="40" fill="#f9f4da" font-weight="800">8.4×</text>
  <text x="440" y="188" font-family="Inter, system-ui, sans-serif" font-size="12" fill="#fcba28" font-weight="500">↑ 0.6×</text>
  <rect x="328" y="202" width="220" height="4" rx="2" fill="#383c44"/>
  <rect x="328" y="202" width="154" height="4" rx="2" fill="#f9f4da" opacity="0.6"/>

  <!-- KPI 3: Supplier Score -->
  <rect x="588" y="120" width="260" height="96" rx="6" fill="#1e1e1e" stroke="#383c44" stroke-width="1"/>
  <text x="608" y="146" font-family="Inter, system-ui, sans-serif" font-size="10" fill="#909498" letter-spacing="1.5">SUPPLIER SCORE</text>
  <text x="608" y="188" font-family="Inter, system-ui, sans-serif" font-size="40" fill="#f9f4da" font-weight="800">4.7</text>
  <text x="678" y="178" font-family="Inter, system-ui, sans-serif" font-size="16" fill="#f9f4da" font-weight="400">/5</text>
  <text x="720" y="188" font-family="Inter, system-ui, sans-serif" font-size="12" fill="#fcba28" font-weight="500">↑ 0.3</text>
  <!-- Stars -->
  <text x="608" y="210" font-family="Inter, system-ui, sans-serif" font-size="16" fill="#fcba28">★★★★</text>
  <text x="680" y="210" font-family="Inter, system-ui, sans-serif" font-size="16" fill="#383c44">★</text>

  <!-- KPI 4: Cost per Unit -->
  <rect x="868" y="120" width="304" height="96" rx="6" fill="#1e1e1e" stroke="#fc7428" stroke-width="1"/>
  <text x="888" y="146" font-family="Inter, system-ui, sans-serif" font-size="10" fill="#fc7428" letter-spacing="1.5">COST PER UNIT</text>
  <text x="888" y="188" font-family="Inter, system-ui, sans-serif" font-size="40" fill="#fc7428" font-weight="800">€2.84</text>
  <text x="1030" y="188" font-family="Inter, system-ui, sans-serif" font-size="12" fill="#fc7428" font-weight="500">↓ 12%</text>
  <text x="888" y="208" font-family="Inter, system-ui, sans-serif" font-size="11" fill="#909498">Target: €2.90 — under budget</text>

  <!-- Main content area: left chart -->
  <rect x="28" y="232" width="548" height="260" rx="6" fill="#1e1e1e" stroke="#383c44" stroke-width="1"/>
  <text x="48" y="258" font-family="Inter, system-ui, sans-serif" font-size="11" fill="#f9f4da" font-weight="600">Shipment Volume</text>
  <text x="48" y="276" font-family="Inter, system-ui, sans-serif" font-size="10" fill="#909498">Units shipped per week · Jan–Mar 2024</text>

  <!-- Chart legend -->
  <rect x="400" y="248" width="12" height="3" rx="1" fill="#fcba28"/>
  <text x="418" y="258" font-family="Inter, system-ui, sans-serif" font-size="10" fill="#909498">Outbound</text>
  <rect x="488" y="248" width="12" height="3" rx="1" fill="#fc7428"/>
  <text x="506" y="258" font-family="Inter, system-ui, sans-serif" font-size="10" fill="#909498">Inbound</text>

  <!-- Chart area background -->
  <rect x="48" y="288" width="508" height="180" rx="4" fill="#171717"/>

  <!-- Y axis labels -->
  <text x="44" y="300" font-family="Inter, system-ui, sans-serif" font-size="9" fill="#909498" text-anchor="end">5k</text>
  <text x="44" y="338" font-family="Inter, system-ui, sans-serif" font-size="9" fill="#909498" text-anchor="end">4k</text>
  <text x="44" y="376" font-family="Inter, system-ui, sans-serif" font-size="9" fill="#909498" text-anchor="end">3k</text>
  <text x="44" y="414" font-family="Inter, system-ui, sans-serif" font-size="9" fill="#909498" text-anchor="end">2k</text>
  <text x="44" y="452" font-family="Inter, system-ui, sans-serif" font-size="9" fill="#909498" text-anchor="end">1k</text>
  <text x="44" y="468" font-family="Inter, system-ui, sans-serif" font-size="9" fill="#909498" text-anchor="end">0</text>

  <!-- Grid lines -->
  <line x1="48" y1="296" x2="556" y2="296" stroke="#1e1e1e" stroke-width="1"/>
  <line x1="48" y1="334" x2="556" y2="334" stroke="#1e1e1e" stroke-width="1"/>
  <line x1="48" y1="372" x2="556" y2="372" stroke="#1e1e1e" stroke-width="1"/>
  <line x1="48" y1="410" x2="556" y2="410" stroke="#1e1e1e" stroke-width="1"/>
  <line x1="48" y1="448" x2="556" y2="448" stroke="#1e1e1e" stroke-width="1"/>
  <line x1="48" y1="468" x2="556" y2="468" stroke="#383c44" stroke-width="1"/>

  <!-- Bar chart bars (12 weeks, grouped) -->
  <!-- Week bars: x starts at 68, each group width ~38px, gap 4px -->
  <!-- Outbound (yellow) + Inbound (orange), side by side -->
  <!-- Heights proportional to units (max 5000 = 172px height) -->

  <!-- W1 -->
  <rect x="68" y="370" width="14" height="98" rx="1" fill="#fcba28" opacity="0.8"/>
  <rect x="84" y="388" width="14" height="80" rx="1" fill="#fc7428" opacity="0.6"/>
  <!-- W2 -->
  <rect x="110" y="352" width="14" height="116" rx="1" fill="#fcba28" opacity="0.8"/>
  <rect x="126" y="374" width="14" height="94" rx="1" fill="#fc7428" opacity="0.6"/>
  <!-- W3 -->
  <rect x="152" y="334" width="14" height="134" rx="1" fill="#fcba28"/>
  <rect x="168" y="358" width="14" height="110" rx="1" fill="#fc7428" opacity="0.7"/>
  <!-- W4 -->
  <rect x="194" y="342" width="14" height="126" rx="1" fill="#fcba28" opacity="0.9"/>
  <rect x="210" y="364" width="14" height="104" rx="1" fill="#fc7428" opacity="0.65"/>
  <!-- W5 -->
  <rect x="236" y="318" width="14" height="150" rx="1" fill="#fcba28"/>
  <rect x="252" y="344" width="14" height="124" rx="1" fill="#fc7428" opacity="0.75"/>
  <!-- W6 -->
  <rect x="278" y="306" width="14" height="162" rx="1" fill="#fcba28"/>
  <rect x="294" y="332" width="14" height="136" rx="1" fill="#fc7428" opacity="0.8"/>
  <!-- W7 — peak, highlight -->
  <rect x="320" y="296" width="14" height="172" rx="1" fill="#fcba28"/>
  <rect x="336" y="314" width="14" height="154" rx="1" fill="#fc7428" opacity="0.8"/>
  <line x1="327" y1="288" x2="327" y2="296" stroke="#fcba28" stroke-width="1" stroke-dasharray="2,2" opacity="0.6"/>
  <text x="327" y="285" font-family="Inter, system-ui, sans-serif" font-size="8" fill="#fcba28" text-anchor="middle">4,980</text>
  <!-- W8 -->
  <rect x="362" y="308" width="14" height="160" rx="1" fill="#fcba28" opacity="0.9"/>
  <rect x="378" y="326" width="14" height="142" rx="1" fill="#fc7428" opacity="0.75"/>
  <!-- W9 -->
  <rect x="404" y="326" width="14" height="142" rx="1" fill="#fcba28" opacity="0.85"/>
  <rect x="420" y="346" width="14" height="122" rx="1" fill="#fc7428" opacity="0.7"/>
  <!-- W10 -->
  <rect x="446" y="338" width="14" height="130" rx="1" fill="#fcba28" opacity="0.8"/>
  <rect x="462" y="356" width="14" height="112" rx="1" fill="#fc7428" opacity="0.65"/>
  <!-- W11 -->
  <rect x="488" y="322" width="14" height="146" rx="1" fill="#fcba28" opacity="0.9"/>
  <rect x="504" y="344" width="14" height="124" rx="1" fill="#fc7428" opacity="0.72"/>
  <!-- W12 -->
  <rect x="530" y="310" width="14" height="158" rx="1" fill="#fcba28"/>
  <rect x="546" y="330" width="14" height="138" rx="1" fill="#fc7428" opacity="0.8"/>

  <!-- X axis labels -->
  <text x="75" y="480" font-family="Inter, system-ui, sans-serif" font-size="9" fill="#909498" text-anchor="middle">W1</text>
  <text x="117" y="480" font-family="Inter, system-ui, sans-serif" font-size="9" fill="#909498" text-anchor="middle">W2</text>
  <text x="159" y="480" font-family="Inter, system-ui, sans-serif" font-size="9" fill="#909498" text-anchor="middle">W3</text>
  <text x="201" y="480" font-family="Inter, system-ui, sans-serif" font-size="9" fill="#909498" text-anchor="middle">W4</text>
  <text x="243" y="480" font-family="Inter, system-ui, sans-serif" font-size="9" fill="#909498" text-anchor="middle">W5</text>
  <text x="285" y="480" font-family="Inter, system-ui, sans-serif" font-size="9" fill="#909498" text-anchor="middle">W6</text>
  <text x="327" y="480" font-family="Inter, system-ui, sans-serif" font-size="9" fill="#fcba28" text-anchor="middle" font-weight="600">W7</text>
  <text x="369" y="480" font-family="Inter, system-ui, sans-serif" font-size="9" fill="#909498" text-anchor="middle">W8</text>
  <text x="411" y="480" font-family="Inter, system-ui, sans-serif" font-size="9" fill="#909498" text-anchor="middle">W9</text>
  <text x="453" y="480" font-family="Inter, system-ui, sans-serif" font-size="9" fill="#909498" text-anchor="middle">W10</text>
  <text x="495" y="480" font-family="Inter, system-ui, sans-serif" font-size="9" fill="#909498" text-anchor="middle">W11</text>
  <text x="537" y="480" font-family="Inter, system-ui, sans-serif" font-size="9" fill="#909498" text-anchor="middle">W12</text>

  <!-- Right chart: Line chart with trend -->
  <rect x="596" y="232" width="576" height="260" rx="6" fill="#1e1e1e" stroke="#383c44" stroke-width="1"/>
  <text x="616" y="258" font-family="Inter, system-ui, sans-serif" font-size="11" fill="#f9f4da" font-weight="600">Cost Efficiency Trend</text>
  <text x="616" y="276" font-family="Inter, system-ui, sans-serif" font-size="10" fill="#909498">Cost per unit shipped · vs. target</text>

  <!-- Chart legend -->
  <line x1="940" y1="252" x2="956" y2="252" stroke="#fcba28" stroke-width="2"/>
  <text x="962" y="258" font-family="Inter, system-ui, sans-serif" font-size="10" fill="#909498">Actual</text>
  <line x1="1020" y1="252" x2="1036" y2="252" stroke="#383c44" stroke-width="2" stroke-dasharray="4,3"/>
  <text x="1042" y="258" font-family="Inter, system-ui, sans-serif" font-size="10" fill="#909498">Target</text>

  <!-- Line chart area -->
  <rect x="616" y="288" width="536" height="180" rx="4" fill="#171717"/>

  <!-- Grid lines -->
  <line x1="616" y1="300" x2="1152" y2="300" stroke="#1e1e1e" stroke-width="1"/>
  <line x1="616" y1="330" x2="1152" y2="330" stroke="#1e1e1e" stroke-width="1"/>
  <line x1="616" y1="360" x2="1152" y2="360" stroke="#1e1e1e" stroke-width="1"/>
  <line x1="616" y1="390" x2="1152" y2="390" stroke="#1e1e1e" stroke-width="1"/>
  <line x1="616" y1="420" x2="1152" y2="420" stroke="#1e1e1e" stroke-width="1"/>
  <line x1="616" y1="450" x2="1152" y2="450" stroke="#1e1e1e" stroke-width="1"/>
  <line x1="616" y1="468" x2="1152" y2="468" stroke="#383c44" stroke-width="1"/>

  <!-- Target dashed line at €2.90 ≈ y=370 -->
  <line x1="616" y1="370" x2="1152" y2="370" stroke="#383c44" stroke-width="1.5" stroke-dasharray="6,4"/>
  <text x="616" y="366" font-family="Inter, system-ui, sans-serif" font-size="9" fill="#383c44">€2.90 target</text>

  <!-- Area fill under line -->
  <polygon points="636,430 680,418 724,404 768,392 812,380 856,368 900,354 944,346 988,338 1032,330 1076,322 1120,314 1152,310 1152,468 636,468" fill="url(#lineGrad)"/>

  <!-- Actual cost line (improving = going down) -->
  <polyline points="636,430 680,418 724,404 768,392 812,380 856,368 900,354 944,346 988,338 1032,330 1076,322 1120,314" fill="none" stroke="#fcba28" stroke-width="2.5" stroke-linejoin="round"/>

  <!-- Data point at end -->
  <circle cx="1120" cy="314" r="5" fill="#fcba28"/>
  <circle cx="1120" cy="314" r="10" fill="#fcba28" opacity="0.15"/>
  <text x="1124" y="308" font-family="Inter, system-ui, sans-serif" font-size="9" fill="#fcba28">€2.84</text>

  <!-- Y axis labels -->
  <text x="612" y="304" font-family="Inter, system-ui, sans-serif" font-size="9" fill="#909498" text-anchor="end">€3.50</text>
  <text x="612" y="364" font-family="Inter, system-ui, sans-serif" font-size="9" fill="#909498" text-anchor="end">€2.90</text>
  <text x="612" y="424" font-family="Inter, system-ui, sans-serif" font-size="9" fill="#909498" text-anchor="end">€2.30</text>

  <!-- X axis labels -->
  <text x="636" y="480" font-family="Inter, system-ui, sans-serif" font-size="9" fill="#909498" text-anchor="middle">Jan</text>
  <text x="768" y="480" font-family="Inter, system-ui, sans-serif" font-size="9" fill="#909498" text-anchor="middle">Feb</text>
  <text x="900" y="480" font-family="Inter, system-ui, sans-serif" font-size="9" fill="#909498" text-anchor="middle">Mar</text>
  <text x="1120" y="480" font-family="Inter, system-ui, sans-serif" font-size="9" fill="#909498" text-anchor="middle">Now</text>

  <!-- Bottom: Supplier table -->
  <rect x="28" y="508" width="1144" height="108" rx="6" fill="#1e1e1e" stroke="#383c44" stroke-width="1"/>

  <!-- Table header -->
  <rect x="28" y="508" width="1144" height="36" rx="6" fill="#262522"/>
  <rect x="28" y="538" width="1144" height="6" fill="#262522"/>
  <text x="52" y="531" font-family="Inter, system-ui, sans-serif" font-size="10" fill="#909498" letter-spacing="1">SUPPLIER</text>
  <text x="280" y="531" font-family="Inter, system-ui, sans-serif" font-size="10" fill="#909498" letter-spacing="1">REGION</text>
  <text x="460" y="531" font-family="Inter, system-ui, sans-serif" font-size="10" fill="#909498" letter-spacing="1">ON-TIME %</text>
  <text x="640" y="531" font-family="Inter, system-ui, sans-serif" font-size="10" fill="#909498" letter-spacing="1">UNITS / MO</text>
  <text x="820" y="531" font-family="Inter, system-ui, sans-serif" font-size="10" fill="#909498" letter-spacing="1">COST/UNIT</text>
  <text x="1000" y="531" font-family="Inter, system-ui, sans-serif" font-size="10" fill="#909498" letter-spacing="1">STATUS</text>

  <!-- Row 1 -->
  <text x="52" y="563" font-family="Inter, system-ui, sans-serif" font-size="11" fill="#f9f4da" font-weight="500">Nordmann GmbH</text>
  <text x="280" y="563" font-family="Inter, system-ui, sans-serif" font-size="11" fill="#909498">DE · Central EU</text>
  <text x="460" y="563" font-family="Inter, system-ui, sans-serif" font-size="11" fill="#fcba28" font-weight="600">99.1%</text>
  <text x="640" y="563" font-family="Inter, system-ui, sans-serif" font-size="11" fill="#f9f4da">42,800</text>
  <text x="820" y="563" font-family="Inter, system-ui, sans-serif" font-size="11" fill="#f9f4da">€2.71</text>
  <rect x="1000" y="551" width="60" height="20" rx="10" fill="#fcba28" opacity="0.15"/>
  <text x="1030" y="565" font-family="Inter, system-ui, sans-serif" font-size="10" fill="#fcba28" text-anchor="middle" font-weight="500">Active</text>

  <!-- Row 2 -->
  <line x1="28" y1="574" x2="1172" y2="574" stroke="#383c44" stroke-width="0.5"/>
  <text x="52" y="595" font-family="Inter, system-ui, sans-serif" font-size="11" fill="#f9f4da" font-weight="500">Veritas Logistics</text>
  <text x="280" y="595" font-family="Inter, system-ui, sans-serif" font-size="11" fill="#909498">NL · West EU</text>
  <text x="460" y="595" font-family="Inter, system-ui, sans-serif" font-size="11" fill="#f9f4da">96.4%</text>
  <text x="640" y="595" font-family="Inter, system-ui, sans-serif" font-size="11" fill="#f9f4da">31,200</text>
  <text x="820" y="595" font-family="Inter, system-ui, sans-serif" font-size="11" fill="#f9f4da">€2.89</text>
  <rect x="1000" y="583" width="60" height="20" rx="10" fill="#fcba28" opacity="0.15"/>
  <text x="1030" y="597" font-family="Inter, system-ui, sans-serif" font-size="10" fill="#fcba28" text-anchor="middle" font-weight="500">Active</text>

  <!-- Row 3 -->
  <line x1="28" y1="606" x2="1172" y2="606" stroke="#383c44" stroke-width="0.5"/>
  <text x="52" y="627" font-family="Inter, system-ui, sans-serif" font-size="11" fill="#909498">ProChain Asia</text>
  <text x="280" y="627" font-family="Inter, system-ui, sans-serif" font-size="11" fill="#909498">SG · APAC</text>
  <text x="460" y="627" font-family="Inter, system-ui, sans-serif" font-size="11" fill="#fc7428">88.2%</text>
  <text x="640" y="627" font-family="Inter, system-ui, sans-serif" font-size="11" fill="#909498">18,600</text>
  <text x="820" y="627" font-family="Inter, system-ui, sans-serif" font-size="11" fill="#909498">€3.14</text>
  <rect x="1000" y="615" width="72" height="20" rx="10" fill="#fc7428" opacity="0.12"/>
  <text x="1036" y="629" font-family="Inter, system-ui, sans-serif" font-size="10" fill="#fc7428" text-anchor="middle" font-weight="500">Review</text>

  <!-- Label band -->
  <rect x="0" y="636" width="1200" height="39" fill="#1e1e1e"/>
  <line x1="0" y1="636" x2="1200" y2="636" stroke="#383c44" stroke-width="1"/>
  <text x="72" y="660" font-family="Inter, system-ui, sans-serif" font-size="11" fill="#909498" letter-spacing="1.5" font-weight="500">B2B DASHBOARD</text>
  <text x="230" y="660" font-family="Inter, system-ui, sans-serif" font-size="11" fill="#383c44" letter-spacing="1">·  LOGITECH SOLUTIONS  ·  2023</text>
  <rect x="72" y="636" width="80" height="3" fill="#fcba28"/>
  <rect x="156" y="636" width="40" height="3" fill="#fc7428"/>
</svg>
