<svg width="1200" height="675" viewBox="0 0 1200 675" xmlns="http://www.w3.org/2000/svg">
  <defs>
    <pattern id="warehouseGrid" width="60" height="60" patternUnits="userSpaceOnUse">
      <line x1="60" y1="0" x2="0" y2="0" stroke="#1a1a1a" stroke-width="1"/>
      <line x1="0" y1="0" x2="0" y2="60" stroke="#1a1a1a" stroke-width="1"/>
    </pattern>
    <pattern id="dot" width="24" height="24" patternUnits="userSpaceOnUse">
      <circle cx="12" cy="12" r="1" fill="#262522"/>
    </pattern>
  </defs>

  <!-- Background -->
  <rect width="1200" height="675" fill="#0d0d0d"/>
  <rect width="1200" height="675" fill="url(#warehouseGrid)" opacity="0.7"/>

  <!-- Large "DS" monogram background watermark -->
  <text x="540" y="500" font-family="Inter, system-ui, sans-serif" font-size="420" fill="#1a1a1a" font-weight="900" opacity="0.6">DS</text>

  <!-- Header -->
  <text x="72" y="80" font-family="Inter, system-ui, sans-serif" font-size="11" fill="#909498" letter-spacing="2" font-weight="500">DESIGN SYSTEM — WAREHOUSE SOFTWARE</text>
  <rect x="72" y="88" width="60" height="2" fill="#fcba28"/>
  <rect x="136" y="88" width="30" height="2" fill="#fc7428"/>

  <!-- Left column: Tokens -->
  <rect x="72" y="108" width="220" height="484" rx="6" fill="#1e1e1e" stroke="#383c44" stroke-width="1"/>
  <text x="92" y="136" font-family="Inter, system-ui, sans-serif" font-size="9" fill="#909498" letter-spacing="2">TOKENS</text>
  <line x1="92" y1="144" x2="272" y2="144" stroke="#383c44" stroke-width="1"/>

  <!-- Color tokens - industrial palette -->
  <text x="92" y="164" font-family="Inter, system-ui, sans-serif" font-size="9" fill="#909498" letter-spacing="1">COLOUR</text>
  <rect x="92" y="172" width="22" height="22" rx="3" fill="#fcba28"/>
  <rect x="120" y="172" width="22" height="22" rx="3" fill="#fc7428"/>
  <rect x="148" y="172" width="22" height="22" rx="3" fill="#f9f4da"/>
  <rect x="176" y="172" width="22" height="22" rx="3" fill="#383c44"/>
  <rect x="204" y="172" width="22" height="22" rx="3" fill="#1e1e1e" stroke="#383c44" stroke-width="1"/>
  <rect x="232" y="172" width="22" height="22" rx="3" fill="#0d0d0d" stroke="#383c44" stroke-width="1"/>

  <line x1="92" y1="206" x2="272" y2="206" stroke="#383c44" stroke-width="1"/>

  <!-- Typography tokens -->
  <text x="92" y="224" font-family="Inter, system-ui, sans-serif" font-size="9" fill="#909498" letter-spacing="1">TYPE SCALE</text>
  <text x="92" y="248" font-family="Inter, system-ui, sans-serif" font-size="20" fill="#f9f4da" font-weight="700">Heading 1</text>
  <text x="92" y="266" font-family="Inter, system-ui, sans-serif" font-size="14" fill="#f9f4da" font-weight="600">Heading 2</text>
  <text x="92" y="280" font-family="Inter, system-ui, sans-serif" font-size="12" fill="#f9f4da" font-weight="400">Body regular</text>
  <text x="92" y="293" font-family="Inter, system-ui, sans-serif" font-size="10" fill="#909498" font-weight="500" letter-spacing="1">LABEL CAPS</text>

  <line x1="92" y1="308" x2="272" y2="308" stroke="#383c44" stroke-width="1"/>

  <!-- Spacing -->
  <text x="92" y="326" font-family="Inter, system-ui, sans-serif" font-size="9" fill="#909498" letter-spacing="1">SPACING</text>
  <rect x="92" y="336" width="4" height="12" rx="1" fill="#fcba28" opacity="0.5"/>
  <rect x="102" y="332" width="8" height="16" rx="1" fill="#fcba28" opacity="0.65"/>
  <rect x="116" y="328" width="12" height="20" rx="1" fill="#fcba28" opacity="0.8"/>
  <rect x="134" y="324" width="16" height="24" rx="1" fill="#fcba28" opacity="0.9"/>
  <rect x="156" y="320" width="24" height="28" rx="1" fill="#fcba28"/>
  <rect x="186" y="316" width="32" height="32" rx="1" fill="#fc7428" opacity="0.8"/>
  <rect x="224" y="312" width="40" height="36" rx="1" fill="#fc7428" opacity="0.5"/>
  <text x="92" y="362" font-family="Inter, system-ui, sans-serif" font-size="9" fill="#909498">4 · 8 · 12 · 16 · 24 · 32 · 48</text>

  <line x1="92" y1="378" x2="272" y2="378" stroke="#383c44" stroke-width="1"/>

  <!-- Radius -->
  <text x="92" y="396" font-family="Inter, system-ui, sans-serif" font-size="9" fill="#909498" letter-spacing="1">RADIUS</text>
  <rect x="92" y="408" width="32" height="32" rx="1" fill="none" stroke="#fcba28" stroke-width="1.5"/>
  <rect x="132" y="408" width="32" height="32" rx="4" fill="none" stroke="#fcba28" stroke-width="1.5"/>
  <rect x="172" y="408" width="32" height="32" rx="10" fill="none" stroke="#fcba28" stroke-width="1.5"/>
  <rect x="212" y="408" width="32" height="32" rx="16" fill="none" stroke="#fc7428" stroke-width="1.5"/>

  <line x1="92" y1="452" x2="272" y2="452" stroke="#383c44" stroke-width="1"/>

  <!-- Status badges -->
  <text x="92" y="470" font-family="Inter, system-ui, sans-serif" font-size="9" fill="#909498" letter-spacing="1">STATUS</text>
  <rect x="92" y="480" width="56" height="20" rx="10" fill="#fcba28" opacity="0.15" stroke="#fcba28" stroke-width="1"/>
  <text x="120" y="494" font-family="Inter, system-ui, sans-serif" font-size="9" fill="#fcba28" text-anchor="middle">Active</text>
  <rect x="156" y="480" width="56" height="20" rx="10" fill="#fc7428" opacity="0.12" stroke="#fc7428" stroke-width="1"/>
  <text x="184" y="494" font-family="Inter, system-ui, sans-serif" font-size="9" fill="#fc7428" text-anchor="middle">Warning</text>
  <rect x="220" y="480" width="52" height="20" rx="10" fill="#383c44"/>
  <text x="246" y="494" font-family="Inter, system-ui, sans-serif" font-size="9" fill="#909498" text-anchor="middle">Inactive</text>

  <line x1="92" y1="512" x2="272" y2="512" stroke="#383c44" stroke-width="1"/>

  <!-- Motion/Transition -->
  <text x="92" y="530" font-family="Inter, system-ui, sans-serif" font-size="9" fill="#909498" letter-spacing="1">MOTION</text>
  <text x="92" y="548" font-family="Inter, system-ui, sans-serif" font-size="10" fill="#f9f4da">Fast · 120ms ease</text>
  <text x="92" y="564" font-family="Inter, system-ui, sans-serif" font-size="10" fill="#f9f4da">Base · 200ms ease</text>
  <text x="92" y="580" font-family="Inter, system-ui, sans-serif" font-size="10" fill="#909498">Slow · 400ms ease-out</text>

  <!-- Component cards: 3 columns × 3 rows -->

  <!-- Row 1 -->

  <!-- Scan button component -->
  <rect x="316" y="108" width="248" height="148" rx="6" fill="#1e1e1e" stroke="#383c44" stroke-width="1"/>
  <text x="336" y="134" font-family="Inter, system-ui, sans-serif" font-size="9" fill="#909498" letter-spacing="2">BUTTON</text>
  <rect x="336" y="148" width="96" height="36" rx="4" fill="#fcba28"/>
  <!-- scan icon -->
  <rect x="348" y="157" width="14" height="18" rx="1" fill="none" stroke="#0d0d0d" stroke-width="1.5"/>
  <line x1="352" y1="157" x2="352" y2="175" stroke="#0d0d0d" stroke-width="1"/>
  <line x1="356" y1="157" x2="356" y2="175" stroke="#0d0d0d" stroke-width="1"/>
  <line x1="360" y1="157" x2="360" y2="175" stroke="#0d0d0d" stroke-width="1"/>
  <text x="369" y="171" font-family="Inter, system-ui, sans-serif" font-size="12" fill="#0d0d0d" font-weight="600">Scan</text>
  <rect x="444" y="148" width="96" height="36" rx="4" fill="none" stroke="#fcba28" stroke-width="1.5"/>
  <text x="476" y="171" font-family="Inter, system-ui, sans-serif" font-size="12" fill="#fcba28" font-weight="500">Cancel</text>
  <rect x="336" y="196" width="96" height="36" rx="4" fill="#262522" stroke="#383c44" stroke-width="1"/>
  <text x="363" y="219" font-family="Inter, system-ui, sans-serif" font-size="12" fill="#909498">Disabled</text>
  <rect x="444" y="196" width="96" height="36" rx="4" fill="#fc7428"/>
  <text x="471" y="219" font-family="Inter, system-ui, sans-serif" font-size="12" fill="#0d0d0d" font-weight="600">Confirm</text>

  <!-- Input / Barcode scan component -->
  <rect x="584" y="108" width="248" height="148" rx="6" fill="#1e1e1e" stroke="#383c44" stroke-width="1"/>
  <text x="604" y="134" font-family="Inter, system-ui, sans-serif" font-size="9" fill="#909498" letter-spacing="2">INPUT / SCAN</text>
  <rect x="604" y="148" width="208" height="40" rx="4" fill="#262522" stroke="#383c44" stroke-width="1"/>
  <text x="620" y="173" font-family="Inter, system-ui, sans-serif" font-size="12" fill="#909498">Scan barcode or enter ID</text>
  <!-- barcode icon right -->
  <rect x="788" y="155" width="16" height="24" rx="1" fill="none" stroke="#909498" stroke-width="1"/>
  <line x1="791" y1="155" x2="791" y2="179" stroke="#909498" stroke-width="1"/>
  <line x1="794" y1="155" x2="794" y2="179" stroke="#909498" stroke-width="1"/>
  <line x1="797" y1="155" x2="797" y2="179" stroke="#909498" stroke-width="1"/>
  <rect x="604" y="200" width="208" height="40" rx="4" fill="#262522" stroke="#fcba28" stroke-width="1.5"/>
  <text x="620" y="225" font-family="Inter, system-ui, sans-serif" font-size="12" fill="#f9f4da">WH-204-A-0087</text>

  <!-- Alert / Notification component -->
  <rect x="852" y="108" width="276" height="148" rx="6" fill="#1e1e1e" stroke="#383c44" stroke-width="1"/>
  <text x="872" y="134" font-family="Inter, system-ui, sans-serif" font-size="9" fill="#909498" letter-spacing="2">ALERT</text>
  <!-- Error alert -->
  <rect x="872" y="148" width="236" height="44" rx="4" fill="#fc7428" opacity="0.1" stroke="#fc7428" stroke-width="1"/>
  <circle cx="888" cy="170" r="8" fill="#fc7428" opacity="0.3"/>
  <text x="888" y="175" font-family="Inter, system-ui, sans-serif" font-size="11" fill="#fc7428" text-anchor="middle" font-weight="700">!</text>
  <text x="904" y="167" font-family="Inter, system-ui, sans-serif" font-size="11" fill="#fc7428" font-weight="600">Dock door blocked</text>
  <text x="904" y="182" font-family="Inter, system-ui, sans-serif" font-size="10" fill="#fc7428" opacity="0.7">Zone C · Bay 14</text>
  <!-- Info alert -->
  <rect x="872" y="204" width="236" height="40" rx="4" fill="#fcba28" opacity="0.1" stroke="#fcba28" stroke-width="1"/>
  <circle cx="888" cy="224" r="8" fill="#fcba28" opacity="0.3"/>
  <text x="888" y="229" font-family="Inter, system-ui, sans-serif" font-size="11" fill="#fcba28" text-anchor="middle" font-weight="700">i</text>
  <text x="904" y="221" font-family="Inter, system-ui, sans-serif" font-size="11" fill="#fcba28" font-weight="500">Shipment arriving · 14:32</text>
  <text x="904" y="235" font-family="Inter, system-ui, sans-serif" font-size="10" fill="#fcba28" opacity="0.7">Order #8842</text>

  <!-- Row 2 -->

  <!-- Data table row component -->
  <rect x="316" y="276" width="248" height="160" rx="6" fill="#1e1e1e" stroke="#383c44" stroke-width="1"/>
  <text x="336" y="302" font-family="Inter, system-ui, sans-serif" font-size="9" fill="#909498" letter-spacing="2">TABLE ROW</text>
  <!-- Table header -->
  <rect x="316" y="276" width="248" height="36" rx="6" fill="#262522"/>
  <rect x="316" y="306" width="248" height="6" fill="#262522"/>
  <text x="336" y="298" font-family="Inter, system-ui, sans-serif" font-size="9" fill="#909498">ID</text>
  <text x="380" y="298" font-family="Inter, system-ui, sans-serif" font-size="9" fill="#909498">ITEM</text>
  <text x="460" y="298" font-family="Inter, system-ui, sans-serif" font-size="9" fill="#909498">QTY</text>
  <text x="508" y="298" font-family="Inter, system-ui, sans-serif" font-size="9" fill="#909498">STATUS</text>
  <!-- Row 1 -->
  <line x1="316" y1="318" x2="564" y2="318" stroke="#383c44" stroke-width="0.5"/>
  <text x="336" y="332" font-family="Inter, system-ui, sans-serif" font-size="10" fill="#f9f4da">0087</text>
  <text x="380" y="332" font-family="Inter, system-ui, sans-serif" font-size="10" fill="#f9f4da">Pallet A</text>
  <text x="460" y="332" font-family="Inter, system-ui, sans-serif" font-size="10" fill="#f9f4da">24</text>
  <rect x="502" y="323" width="52" height="16" rx="8" fill="#fcba28" opacity="0.2"/>
  <text x="528" y="334" font-family="Inter, system-ui, sans-serif" font-size="9" fill="#fcba28" text-anchor="middle">In dock</text>
  <!-- Row 2 -->
  <line x1="316" y1="344" x2="564" y2="344" stroke="#383c44" stroke-width="0.5"/>
  <text x="336" y="358" font-family="Inter, system-ui, sans-serif" font-size="10" fill="#f9f4da">0091</text>
  <text x="380" y="358" font-family="Inter, system-ui, sans-serif" font-size="10" fill="#f9f4da">Rack B7</text>
  <text x="460" y="358" font-family="Inter, system-ui, sans-serif" font-size="10" fill="#f9f4da">8</text>
  <rect x="502" y="349" width="52" height="16" rx="8" fill="#fc7428" opacity="0.15"/>
  <text x="528" y="360" font-family="Inter, system-ui, sans-serif" font-size="9" fill="#fc7428" text-anchor="middle">Pending</text>
  <!-- Row 3 -->
  <line x1="316" y1="370" x2="564" y2="370" stroke="#383c44" stroke-width="0.5"/>
  <text x="336" y="384" font-family="Inter, system-ui, sans-serif" font-size="10" fill="#909498">0076</text>
  <text x="380" y="384" font-family="Inter, system-ui, sans-serif" font-size="10" fill="#909498">Crate C3</text>
  <text x="460" y="384" font-family="Inter, system-ui, sans-serif" font-size="10" fill="#909498">16</text>
  <rect x="502" y="375" width="52" height="16" rx="8" fill="#383c44"/>
  <text x="528" y="386" font-family="Inter, system-ui, sans-serif" font-size="9" fill="#909498" text-anchor="middle">Shipped</text>

  <!-- Navigation / Sidebar component -->
  <rect x="584" y="276" width="248" height="160" rx="6" fill="#1e1e1e" stroke="#383c44" stroke-width="1"/>
  <text x="604" y="302" font-family="Inter, system-ui, sans-serif" font-size="9" fill="#909498" letter-spacing="2">NAV SIDEBAR</text>
  <!-- sidebar items -->
  <rect x="604" y="312" width="208" height="32" rx="4" fill="#fcba28" opacity="0.1"/>
  <rect x="604" y="312" width="3" height="32" rx="1" fill="#fcba28"/>
  <text x="620" y="333" font-family="Inter, system-ui, sans-serif" font-size="12" fill="#fcba28" font-weight="600">Dashboard</text>
  <rect x="604" y="352" width="208" height="28" rx="4" fill="transparent"/>
  <text x="620" y="371" font-family="Inter, system-ui, sans-serif" font-size="12" fill="#909498">Inventory</text>
  <rect x="604" y="386" width="208" height="28" rx="4" fill="transparent"/>
  <text x="620" y="405" font-family="Inter, system-ui, sans-serif" font-size="12" fill="#909498">Shipments</text>
  <rect x="604" y="416" width="208" height="28" rx="4" fill="transparent"/>
  <text x="620" y="435" font-family="Inter, system-ui, sans-serif" font-size="12" fill="#909498">Reports</text>

  <!-- KPI Card component -->
  <rect x="852" y="276" width="276" height="160" rx="6" fill="#1e1e1e" stroke="#383c44" stroke-width="1"/>
  <text x="872" y="302" font-family="Inter, system-ui, sans-serif" font-size="9" fill="#909498" letter-spacing="2">KPI CARD</text>
  <text x="872" y="338" font-family="Inter, system-ui, sans-serif" font-size="9" fill="#909498" letter-spacing="1">PICK ACCURACY</text>
  <text x="872" y="382" font-family="Inter, system-ui, sans-serif" font-size="48" fill="#fcba28" font-weight="800">99.7</text>
  <text x="1004" y="374" font-family="Inter, system-ui, sans-serif" font-size="20" fill="#fcba28" font-weight="600">%</text>
  <text x="1060" y="382" font-family="Inter, system-ui, sans-serif" font-size="13" fill="#fcba28">↑ 0.3%</text>
  <rect x="872" y="396" width="236" height="6" rx="3" fill="#383c44"/>
  <rect x="872" y="396" width="234" height="6" rx="3" fill="#fcba28" opacity="0.7"/>
  <text x="872" y="424" font-family="Inter, system-ui, sans-serif" font-size="10" fill="#909498">Target: 99.5% · Exceeded</text>

  <!-- Row 3 -->

  <!-- Progress / Loading component -->
  <rect x="316" y="456" width="248" height="136" rx="6" fill="#1e1e1e" stroke="#383c44" stroke-width="1"/>
  <text x="336" y="482" font-family="Inter, system-ui, sans-serif" font-size="9" fill="#909498" letter-spacing="2">PROGRESS</text>
  <text x="336" y="514" font-family="Inter, system-ui, sans-serif" font-size="10" fill="#909498">Zone A — Loading</text>
  <rect x="336" y="522" width="208" height="8" rx="4" fill="#383c44"/>
  <rect x="336" y="522" width="166" height="8" rx="4" fill="#fcba28"/>
  <text x="520" y="530" font-family="Inter, system-ui, sans-serif" font-size="9" fill="#fcba28" text-anchor="end">80%</text>
  <text x="336" y="554" font-family="Inter, system-ui, sans-serif" font-size="10" fill="#909498">Zone B — Unloading</text>
  <rect x="336" y="562" width="208" height="8" rx="4" fill="#383c44"/>
  <rect x="336" y="562" width="96" height="8" rx="4" fill="#fc7428"/>
  <text x="520" y="570" font-family="Inter, system-ui, sans-serif" font-size="9" fill="#fc7428" text-anchor="end">46%</text>

  <!-- Toggle / Mode switch -->
  <rect x="584" y="456" width="248" height="136" rx="6" fill="#1e1e1e" stroke="#383c44" stroke-width="1"/>
  <text x="604" y="482" font-family="Inter, system-ui, sans-serif" font-size="9" fill="#909498" letter-spacing="2">TOGGLE</text>
  <rect x="604" y="496" width="52" height="28" rx="14" fill="#fcba28"/>
  <circle cx="642" cy="510" r="11" fill="#0d0d0d"/>
  <text x="668" y="515" font-family="Inter, system-ui, sans-serif" font-size="12" fill="#f9f4da">Auto mode</text>
  <rect x="604" y="536" width="52" height="28" rx="14" fill="#383c44"/>
  <circle cx="617" cy="550" r="11" fill="#1e1e1e" stroke="#909498" stroke-width="1"/>
  <text x="668" y="555" font-family="Inter, system-ui, sans-serif" font-size="12" fill="#909498">Manual mode</text>
  <rect x="604" y="572" width="52" height="28" rx="14" fill="#fc7428" opacity="0.3"/>
  <circle cx="617" cy="586" r="11" fill="#fc7428" opacity="0.6"/>
  <text x="668" y="591" font-family="Inter, system-ui, sans-serif" font-size="12" fill="#fc7428">Emergency</text>

  <!-- Component count badge -->
  <rect x="852" y="456" width="276" height="136" rx="6" fill="#1e1e1e" stroke="#383c44" stroke-width="1"/>
  <text x="872" y="482" font-family="Inter, system-ui, sans-serif" font-size="9" fill="#909498" letter-spacing="2">COVERAGE</text>
  <text x="872" y="530" font-family="Inter, system-ui, sans-serif" font-size="52" fill="#fcba28" font-weight="800">80+</text>
  <text x="872" y="558" font-family="Inter, system-ui, sans-serif" font-size="13" fill="#909498">components · 6 product teams</text>
  <rect x="872" y="572" width="80" height="8" rx="4" fill="#fcba28" opacity="0.8"/>
  <rect x="958" y="572" width="40" height="8" rx="4" fill="#fc7428" opacity="0.6"/>
  <rect x="1004" y="572" width="60" height="8" rx="4" fill="#383c44"/>

  <!-- Label band -->
  <rect x="0" y="636" width="1200" height="39" fill="#0d0d0d"/>
  <line x1="0" y1="636" x2="1200" y2="636" stroke="#1e1e1e" stroke-width="1"/>
  <text x="72" y="660" font-family="Inter, system-ui, sans-serif" font-size="11" fill="#909498" letter-spacing="1.5" font-weight="500">DESIGN SYSTEM KION</text>
  <text x="280" y="660" font-family="Inter, system-ui, sans-serif" font-size="11" fill="#383c44" letter-spacing="1">·  KION  ·  2026</text>
  <rect x="72" y="636" width="80" height="3" fill="#fcba28"/>
  <rect x="156" y="636" width="40" height="3" fill="#fc7428"/>
</svg>
