<svg width="1200" height="675" viewBox="0 0 1200 675" xmlns="http://www.w3.org/2000/svg">
  <defs>
    <pattern id="floorL" width="80" height="80" patternUnits="userSpaceOnUse">
      <rect width="80" height="80" fill="#efefef"/>
      <rect width="79" height="79" fill="#f2f2f2" stroke="#e8e8e8" stroke-width="1"/>
    </pattern>
    <marker id="arrowYL" markerWidth="6" markerHeight="6" refX="3" refY="3" orient="auto">
      <polygon points="0,0 6,3 0,6" fill="#fcba28" opacity="0.9"/>
    </marker>
    <marker id="arrowOL" markerWidth="6" markerHeight="6" refX="3" refY="3" orient="auto">
      <polygon points="0,0 6,3 0,6" fill="#fc7428" opacity="0.8"/>
    </marker>
  </defs>

  <!-- Background -->
  <rect width="1200" height="675" fill="#f7f7f7"/>

  <!-- Warehouse floor -->
  <rect x="72" y="64" width="800" height="524" rx="4" fill="url(#floorL)" stroke="#e1e2e4" stroke-width="1"/>

  <!-- Rack rows -->
  <rect x="112" y="96" width="40" height="200" rx="2" fill="#e8e8e8" stroke="#d8d8d8" stroke-width="1"/>
  <rect x="164" y="96" width="40" height="200" rx="2" fill="#e8e8e8" stroke="#d8d8d8" stroke-width="1"/>
  <rect x="216" y="96" width="40" height="200" rx="2" fill="#e8e8e8" stroke="#d8d8d8" stroke-width="1"/>
  <rect x="268" y="96" width="40" height="200" rx="2" fill="#e8e8e8" stroke="#d8d8d8" stroke-width="1"/>
  <rect x="320" y="96" width="40" height="200" rx="2" fill="#e8e8e8" stroke="#d8d8d8" stroke-width="1"/>
  <rect x="112" y="344" width="40" height="200" rx="2" fill="#e8e8e8" stroke="#d8d8d8" stroke-width="1"/>
  <rect x="164" y="344" width="40" height="200" rx="2" fill="#e8e8e8" stroke="#d8d8d8" stroke-width="1"/>
  <rect x="216" y="344" width="40" height="200" rx="2" fill="#e8e8e8" stroke="#d8d8d8" stroke-width="1"/>
  <rect x="268" y="344" width="40" height="200" rx="2" fill="#e8e8e8" stroke="#d8d8d8" stroke-width="1"/>
  <rect x="320" y="344" width="40" height="200" rx="2" fill="#e8e8e8" stroke="#d8d8d8" stroke-width="1"/>
  <rect x="420" y="96" width="40" height="200" rx="2" fill="#e8e8e8" stroke="#d8d8d8" stroke-width="1"/>
  <rect x="472" y="96" width="40" height="200" rx="2" fill="#e8e8e8" stroke="#d8d8d8" stroke-width="1"/>
  <rect x="524" y="96" width="40" height="200" rx="2" fill="#e8e8e8" stroke="#d8d8d8" stroke-width="1"/>
  <rect x="576" y="96" width="40" height="200" rx="2" fill="#e8e8e8" stroke="#d8d8d8" stroke-width="1"/>
  <rect x="420" y="344" width="40" height="200" rx="2" fill="#e8e8e8" stroke="#d8d8d8" stroke-width="1"/>
  <rect x="472" y="344" width="40" height="200" rx="2" fill="#e8e8e8" stroke="#d8d8d8" stroke-width="1"/>
  <rect x="524" y="344" width="40" height="200" rx="2" fill="#e8e8e8" stroke="#d8d8d8" stroke-width="1"/>
  <rect x="576" y="344" width="40" height="200" rx="2" fill="#e8e8e8" stroke="#d8d8d8" stroke-width="1"/>

  <!-- Charging stations -->
  <rect x="660" y="96" width="60" height="48" rx="3" fill="#ffffff" stroke="#fcba28" stroke-width="1.5"/>
  <text x="690" y="116" font-family="Inter, system-ui, sans-serif" font-size="9" fill="#fcba28" text-anchor="middle">⚡</text>
  <text x="690" y="132" font-family="Inter, system-ui, sans-serif" font-size="8" fill="#fcba28" text-anchor="middle">CHARGE</text>
  <rect x="728" y="96" width="60" height="48" rx="3" fill="#ffffff" stroke="#e1e2e4" stroke-width="1"/>
  <text x="758" y="116" font-family="Inter, system-ui, sans-serif" font-size="9" fill="#5c6069" text-anchor="middle">⚡</text>
  <text x="758" y="132" font-family="Inter, system-ui, sans-serif" font-size="8" fill="#5c6069" text-anchor="middle">EMPTY</text>

  <!-- Dock doors -->
  <rect x="800" y="200" width="72" height="36" rx="2" fill="#ffffff" stroke="#e1e2e4" stroke-width="1"/>
  <text x="836" y="223" font-family="Inter, system-ui, sans-serif" font-size="9" fill="#5c6069" text-anchor="middle">DOCK A</text>
  <rect x="800" y="248" width="72" height="36" rx="2" fill="#ffffff" stroke="#fcba28" stroke-width="1.5"/>
  <text x="836" y="271" font-family="Inter, system-ui, sans-serif" font-size="9" fill="#fcba28" text-anchor="middle">DOCK B</text>
  <rect x="800" y="388" width="72" height="36" rx="2" fill="#ffffff" stroke="#e1e2e4" stroke-width="1"/>
  <text x="836" y="411" font-family="Inter, system-ui, sans-serif" font-size="9" fill="#5c6069" text-anchor="middle">DOCK C</text>
  <rect x="800" y="436" width="72" height="36" rx="2" fill="#ffffff" stroke="#fc7428" stroke-width="1.5"/>
  <text x="836" y="459" font-family="Inter, system-ui, sans-serif" font-size="9" fill="#fc7428" text-anchor="middle">DOCK D</text>

  <!-- AGV paths -->
  <polyline points="380,196 640,196 640,326 796,326" fill="none" stroke="#fcba28" stroke-width="1.5" stroke-dasharray="6,4" opacity="0.6" marker-end="url(#arrowYL)"/>
  <polyline points="620,444 620,326 796,326" fill="none" stroke="#fcba28" stroke-width="1.5" stroke-dasharray="6,4" opacity="0.4" marker-end="url(#arrowYL)"/>
  <polyline points="380,444 640,444 640,454 796,454" fill="none" stroke="#fc7428" stroke-width="1.5" stroke-dasharray="6,4" opacity="0.6" marker-end="url(#arrowOL)"/>
  <polyline points="640,196 640,120 692,120" fill="none" stroke="#c0c2c6" stroke-width="1" stroke-dasharray="4,4" opacity="0.6"/>

  <!-- AGV 1 — yellow, active -->
  <g transform="translate(460, 178)">
    <rect x="-14" y="-10" width="28" height="20" rx="3" fill="#fcba28"/>
    <rect x="-8" y="-14" width="16" height="8" rx="2" fill="#fcba28" opacity="0.7"/>
    <circle cx="0" cy="0" r="4" fill="#ffffff"/>
    <polygon points="16,-3 22,0 16,3" fill="#ffffff" opacity="0.6"/>
  </g>
  <circle cx="460" cy="196" r="20" fill="#fcba28" opacity="0.1"/>
  <rect x="436" y="158" width="48" height="14" rx="7" fill="#ffffff" stroke="#fcba28" stroke-width="1"/>
  <text x="460" y="169" font-family="Inter, system-ui, sans-serif" font-size="8" fill="#fcba28" text-anchor="middle" font-weight="600">AGV-01</text>

  <!-- AGV 2 — parked -->
  <g transform="translate(690, 120)">
    <rect x="-12" y="-8" width="24" height="16" rx="3" fill="#fcba28" opacity="0.6"/>
    <circle cx="0" cy="0" r="3" fill="#ffffff"/>
  </g>
  <rect x="666" y="102" width="48" height="14" rx="7" fill="#ffffff" stroke="#fcba28" stroke-width="1"/>
  <text x="690" y="113" font-family="Inter, system-ui, sans-serif" font-size="8" fill="#fcba28" text-anchor="middle" font-weight="600">AGV-02</text>

  <!-- AGV 3 — orange -->
  <g transform="translate(520, 444)">
    <rect x="-14" y="-10" width="28" height="20" rx="3" fill="#fc7428"/>
    <rect x="-8" y="-14" width="16" height="8" rx="2" fill="#fc7428" opacity="0.7"/>
    <circle cx="0" cy="0" r="4" fill="#ffffff"/>
    <polygon points="16,-3 22,0 16,3" fill="#ffffff" opacity="0.6"/>
  </g>
  <circle cx="520" cy="444" r="20" fill="#fc7428" opacity="0.08"/>
  <rect x="496" y="424" width="48" height="14" rx="7" fill="#ffffff" stroke="#fc7428" stroke-width="1"/>
  <text x="520" y="435" font-family="Inter, system-ui, sans-serif" font-size="8" fill="#fc7428" text-anchor="middle" font-weight="600">AGV-03</text>

  <!-- AGV 4 — standby -->
  <g transform="translate(200, 296)">
    <rect x="-12" y="-8" width="24" height="16" rx="3" fill="#c0c2c6"/>
    <circle cx="0" cy="0" r="3" fill="#f7f7f7"/>
  </g>
  <rect x="176" y="278" width="48" height="14" rx="7" fill="#ffffff" stroke="#c0c2c6" stroke-width="1"/>
  <text x="200" y="289" font-family="Inter, system-ui, sans-serif" font-size="8" fill="#5c6069" text-anchor="middle" font-weight="600">AGV-04</text>

  <!-- Zone labels -->
  <text x="220" y="80" font-family="Inter, system-ui, sans-serif" font-size="9" fill="#c0c2c6" text-anchor="middle" letter-spacing="1">ZONE A</text>
  <text x="500" y="80" font-family="Inter, system-ui, sans-serif" font-size="9" fill="#c0c2c6" text-anchor="middle" letter-spacing="1">ZONE B</text>

  <!-- Right panel -->
  <rect x="892" y="64" width="236" height="524" rx="6" fill="#ffffff" stroke="#e1e2e4" stroke-width="1"/>
  <text x="912" y="96" font-family="Inter, system-ui, sans-serif" font-size="10" fill="#5c6069" letter-spacing="1.5">FLEET STATUS</text>
  <line x1="912" y1="104" x2="1108" y2="104" stroke="#e1e2e4" stroke-width="1"/>

  <text x="912" y="128" font-family="Inter, system-ui, sans-serif" font-size="36" fill="#fcba28" font-weight="800">12</text>
  <text x="912" y="148" font-family="Inter, system-ui, sans-serif" font-size="11" fill="#5c6069">vehicles online</text>
  <rect x="912" y="156" width="176" height="6" rx="3" fill="#e1e2e4"/>
  <rect x="912" y="156" width="140" height="6" rx="3" fill="#fcba28" opacity="0.7"/>
  <text x="1092" y="162" font-family="Inter, system-ui, sans-serif" font-size="9" fill="#5c6069" text-anchor="end">12/15</text>

  <line x1="912" y1="178" x2="1108" y2="178" stroke="#e1e2e4" stroke-width="1"/>
  <text x="912" y="200" font-family="Inter, system-ui, sans-serif" font-size="9" fill="#5c6069" letter-spacing="1">VEHICLES</text>

  <rect x="912" y="210" width="176" height="36" rx="4" fill="#f7f7f7"/>
  <circle cx="928" cy="228" r="5" fill="#fcba28"/>
  <text x="940" y="224" font-family="Inter, system-ui, sans-serif" font-size="11" fill="#0f0d0e" font-weight="500">AGV-01</text>
  <text x="940" y="238" font-family="Inter, system-ui, sans-serif" font-size="9" fill="#fcba28">Moving · Zone A→B</text>
  <text x="1082" y="228" font-family="Inter, system-ui, sans-serif" font-size="10" fill="#fcba28" text-anchor="end">87%</text>

  <rect x="912" y="252" width="176" height="36" rx="4" fill="#f7f7f7"/>
  <circle cx="928" cy="270" r="5" fill="#fcba28" opacity="0.4"/>
  <text x="940" y="266" font-family="Inter, system-ui, sans-serif" font-size="11" fill="#0f0d0e" font-weight="500">AGV-02</text>
  <text x="940" y="280" font-family="Inter, system-ui, sans-serif" font-size="9" fill="#5c6069">Charging · Station 1</text>
  <text x="1082" y="270" font-family="Inter, system-ui, sans-serif" font-size="10" fill="#5c6069" text-anchor="end">34%</text>

  <rect x="912" y="294" width="176" height="36" rx="4" fill="#f7f7f7"/>
  <circle cx="928" cy="312" r="5" fill="#fc7428"/>
  <text x="940" y="308" font-family="Inter, system-ui, sans-serif" font-size="11" fill="#0f0d0e" font-weight="500">AGV-03</text>
  <text x="940" y="322" font-family="Inter, system-ui, sans-serif" font-size="9" fill="#fc7428">Moving · Dock D</text>
  <text x="1082" y="312" font-family="Inter, system-ui, sans-serif" font-size="10" fill="#fc7428" text-anchor="end">92%</text>

  <rect x="912" y="336" width="176" height="36" rx="4" fill="#f7f7f7"/>
  <circle cx="928" cy="354" r="5" fill="#c0c2c6"/>
  <text x="940" y="350" font-family="Inter, system-ui, sans-serif" font-size="11" fill="#5c6069" font-weight="500">AGV-04</text>
  <text x="940" y="364" font-family="Inter, system-ui, sans-serif" font-size="9" fill="#5c6069">Standby · Zone A</text>
  <text x="1082" y="354" font-family="Inter, system-ui, sans-serif" font-size="10" fill="#5c6069" text-anchor="end">100%</text>

  <line x1="912" y1="386" x2="1108" y2="386" stroke="#e1e2e4" stroke-width="1"/>
  <text x="912" y="408" font-family="Inter, system-ui, sans-serif" font-size="9" fill="#5c6069" letter-spacing="1">THROUGHPUT</text>
  <text x="912" y="444" font-family="Inter, system-ui, sans-serif" font-size="36" fill="#0f0d0e" font-weight="700">284</text>
  <text x="912" y="464" font-family="Inter, system-ui, sans-serif" font-size="11" fill="#5c6069">picks / hour</text>

  <line x1="912" y1="480" x2="1108" y2="480" stroke="#e1e2e4" stroke-width="1"/>
  <text x="912" y="502" font-family="Inter, system-ui, sans-serif" font-size="9" fill="#5c6069" letter-spacing="1">ACTIVE ALERTS</text>
  <rect x="912" y="512" width="176" height="32" rx="4" fill="#fc7428" opacity="0.08" stroke="#fc7428" stroke-width="1"/>
  <text x="924" y="526" font-family="Inter, system-ui, sans-serif" font-size="10" fill="#fc7428" font-weight="500">Dock B blocked</text>
  <text x="924" y="538" font-family="Inter, system-ui, sans-serif" font-size="9" fill="#fc7428" opacity="0.7">AGV rerouted · 2 min ago</text>
  <rect x="912" y="550" width="176" height="28" rx="4" fill="#f7f7f7"/>
  <text x="924" y="568" font-family="Inter, system-ui, sans-serif" font-size="10" fill="#5c6069">All systems nominal</text>

  <!-- Label band -->
  <rect x="0" y="636" width="1200" height="39" fill="#f0ede8"/>
  <line x1="0" y1="636" x2="1200" y2="636" stroke="#e1e2e4" stroke-width="1"/>
  <text x="72" y="660" font-family="Inter, system-ui, sans-serif" font-size="11" fill="#5c6069" letter-spacing="1.5" font-weight="500">FLEET MANAGEMENT SOFTWARE</text>
  <text x="368" y="660" font-family="Inter, system-ui, sans-serif" font-size="11" fill="#c0c2c6" letter-spacing="1">·  KION  ·  2026</text>
  <rect x="72" y="636" width="80" height="3" fill="#fcba28"/>
  <rect x="156" y="636" width="40" height="3" fill="#fc7428"/>
</svg>
