<svg width="1200" height="675" viewBox="0 0 1200 675" xmlns="http://www.w3.org/2000/svg">
  <defs>
    <linearGradient id="bgGrad" x1="0" y1="0" x2="0" y2="1">
      <stop offset="0%" stop-color="#0f0f12"/>
      <stop offset="100%" stop-color="#0d0d0d"/>
    </linearGradient>
    <linearGradient id="chartFill" x1="0" y1="0" x2="0" y2="1">
      <stop offset="0%" stop-color="#fcba28" stop-opacity="0.25"/>
      <stop offset="100%" stop-color="#fcba28" stop-opacity="0"/>
    </linearGradient>
    <linearGradient id="orangeGlow" x1="0" y1="0" x2="0" y2="1">
      <stop offset="0%" stop-color="#fc7428" stop-opacity="0.2"/>
      <stop offset="100%" stop-color="#fc7428" stop-opacity="0"/>
    </linearGradient>
    <filter id="glow">
      <feGaussianBlur stdDeviation="8" result="blur"/>
      <feMerge><feMergeNode in="blur"/><feMergeNode in="SourceGraphic"/></feMerge>
    </filter>
    <clipPath id="phoneClip">
      <rect x="420" y="40" width="360" height="595" rx="36"/>
    </clipPath>
  </defs>

  <!-- Background -->
  <rect width="1200" height="675" fill="url(#bgGrad)"/>

  <!-- Ambient glow behind phone -->
  <ellipse cx="600" cy="340" rx="280" ry="240" fill="#fcba28" opacity="0.04"/>
  <ellipse cx="600" cy="340" rx="180" ry="160" fill="#fcba28" opacity="0.04"/>

  <!-- Floating stat cards: left side -->
  <rect x="60" y="180" width="280" height="88" rx="10" fill="#1e1e1e" stroke="#383c44" stroke-width="1"/>
  <rect x="80" y="200" width="44" height="4" rx="1" fill="#909498" opacity="0.55"/>
  <rect x="80" y="212" width="100" height="12" rx="2" fill="#f9f4da" opacity="0.9"/>
  <rect x="80" y="232" width="64" height="20" rx="10" fill="#4cba7d18" stroke="#4cba7d" stroke-width="1"/>
  <rect x="88" y="239" width="48" height="4" rx="1" fill="#4cba7d" opacity="0.85"/>
  <!-- Mini chart in card -->
  <polyline points="200,250 218,244 236,246 254,238 272,232 290,226 308,220" stroke="#4cba7d" stroke-width="1.5" fill="none" opacity="0.7"/>

  <rect x="60" y="290" width="280" height="88" rx="10" fill="#1e1e1e" stroke="#383c44" stroke-width="1"/>
  <rect x="80" y="310" width="56" height="4" rx="1" fill="#909498" opacity="0.55"/>
  <rect x="80" y="322" width="120" height="12" rx="2" fill="#f9f4da" opacity="0.9"/>
  <rect x="80" y="342" width="70" height="20" rx="10" fill="#fc742818" stroke="#fc7428" stroke-width="1"/>
  <rect x="88" y="349" width="54" height="4" rx="1" fill="#fc7428" opacity="0.85"/>
  <polyline points="200,360 218,356 236,354 254,358 272,352 290,348 308,342" stroke="#fc7428" stroke-width="1.5" fill="none" opacity="0.7"/>

  <rect x="60" y="400" width="280" height="88" rx="10" fill="#1e1e1e" stroke="#383c44" stroke-width="1"/>
  <rect x="80" y="420" width="48" height="4" rx="1" fill="#909498" opacity="0.55"/>
  <rect x="80" y="432" width="80" height="12" rx="2" fill="#f9f4da" opacity="0.9"/>
  <rect x="80" y="452" width="56" height="20" rx="10" fill="#fcba2818" stroke="#fcba28" stroke-width="1"/>
  <rect x="88" y="459" width="40" height="4" rx="1" fill="#fcba28" opacity="0.85"/>
  <!-- Donut indicator -->
  <circle cx="300" cy="444" r="22" fill="none" stroke="#383c44" stroke-width="6"/>
  <circle cx="300" cy="444" r="22" fill="none" stroke="#fcba28" stroke-width="6" stroke-dasharray="87 51" stroke-dashoffset="28" stroke-linecap="round"/>

  <!-- Floating notification: right side -->
  <rect x="860" y="160" width="280" height="72" rx="10" fill="#1e1e1e" stroke="#383c44" stroke-width="1"/>
  <rect x="876" y="178" width="28" height="28" rx="14" fill="#fcba2820" stroke="#fcba28" stroke-width="1"/>
  <rect x="882" y="188" width="16" height="4" rx="1" fill="#fcba28" opacity="0.7"/>
  <rect x="912" y="180" width="100" height="4" rx="1" fill="#f9f4da" opacity="0.8"/>
  <rect x="912" y="190" width="140" height="4" rx="1" fill="#909498" opacity="0.5"/>
  <rect x="912" y="200" width="100" height="4" rx="1" fill="#909498" opacity="0.4"/>

  <rect x="860" y="252" width="280" height="72" rx="10" fill="#1e1e1e" stroke="#383c44" stroke-width="1"/>
  <rect x="876" y="270" width="28" height="28" rx="14" fill="#4cba7d18" stroke="#4cba7d" stroke-width="1"/>
  <rect x="882" y="280" width="16" height="4" rx="1" fill="#4cba7d" opacity="0.7"/>
  <rect x="912" y="272" width="80" height="4" rx="1" fill="#f9f4da" opacity="0.8"/>
  <rect x="912" y="282" width="120" height="4" rx="1" fill="#909498" opacity="0.5"/>
  <rect x="912" y="292" width="90" height="4" rx="1" fill="#909498" opacity="0.4"/>

  <!-- Cards: portfolio allocation -->
  <rect x="860" y="360" width="280" height="240" rx="10" fill="#1e1e1e" stroke="#383c44" stroke-width="1"/>
  <rect x="876" y="378" width="80" height="4" rx="1" fill="#909498" opacity="0.5"/>
  <!-- Stacked bars -->
  <rect x="876" y="394" width="248" height="8" rx="4" fill="#383c44"/>
  <rect x="876" y="394" width="160" height="8" rx="4" fill="#fcba28"/>
  <rect x="876" y="410" width="248" height="8" rx="4" fill="#383c44"/>
  <rect x="876" y="410" width="100" height="8" rx="4" fill="#fc7428"/>
  <rect x="876" y="426" width="248" height="8" rx="4" fill="#383c44"/>
  <rect x="876" y="426" width="200" height="8" rx="4" fill="#4cba7d"/>
  <rect x="876" y="442" width="248" height="8" rx="4" fill="#383c44"/>
  <rect x="876" y="442" width="60" height="8" rx="4" fill="#909498"/>
  <!-- Labels -->
  <rect x="876" y="462" width="56" height="4" rx="1" fill="#909498" opacity="0.5"/>
  <rect x="876" y="474" width="44" height="4" rx="1" fill="#909498" opacity="0.5"/>
  <rect x="876" y="486" width="64" height="4" rx="1" fill="#909498" opacity="0.5"/>
  <rect x="876" y="498" width="36" height="4" rx="1" fill="#909498" opacity="0.5"/>
  <!-- Values right-aligned -->
  <rect x="1080" y="462" width="40" height="4" rx="1" fill="#fcba28" opacity="0.75"/>
  <rect x="1080" y="474" width="40" height="4" rx="1" fill="#fc7428" opacity="0.75"/>
  <rect x="1080" y="486" width="40" height="4" rx="1" fill="#4cba7d" opacity="0.75"/>
  <rect x="1080" y="498" width="40" height="4" rx="1" fill="#909498" opacity="0.5"/>
  <!-- Total -->
  <rect x="876" y="530" width="248" height="1" fill="#383c44"/>
  <rect x="876" y="542" width="60" height="4" rx="1" fill="#909498" opacity="0.4"/>
  <rect x="1056" y="542" width="64" height="8" rx="2" fill="#f9f4da" opacity="0.9"/>
  <rect x="876" y="558" width="80" height="4" rx="1" fill="#909498" opacity="0.3"/>

  <!-- === PHONE FRAME === -->
  <!-- Phone shadow -->
  <rect x="422" y="44" width="356" height="591" rx="34" fill="#000000" opacity="0.4" filter="url(#glow)"/>
  <!-- Phone body -->
  <rect x="420" y="40" width="360" height="595" rx="36" fill="#1a1a1a" stroke="#383c44" stroke-width="1.5"/>

  <!-- Phone screen content (clipped) -->
  <g clip-path="url(#phoneClip)">
    <!-- Screen background -->
    <rect x="420" y="40" width="360" height="595" fill="#0d0d0d"/>

    <!-- Status bar -->
    <rect x="420" y="52" width="360" height="32" fill="#0d0d0d"/>
    <rect x="440" y="62" width="40" height="5" rx="1" fill="#f9f4da" opacity="0.7"/>
    <!-- Dynamic island -->
    <rect x="560" y="54" width="80" height="20" rx="10" fill="#000000"/>
    <!-- Battery/signal icons -->
    <rect x="1112" y="62" width="0" height="0"/>
    <rect x="708" y="62" width="24" height="5" rx="1" fill="#f9f4da" opacity="0.5"/>
    <rect x="736" y="62" width="20" height="5" rx="1" fill="#f9f4da" opacity="0.5"/>
    <rect x="756" y="61" width="8" height="7" rx="1" fill="none" stroke="#f9f4da" stroke-width="1" opacity="0.5"/>
    <rect x="757" y="63" width="5" height="3" rx="0.5" fill="#4cba7d" opacity="0.8"/>

    <!-- Header area -->
    <rect x="420" y="84" width="360" height="60" fill="#141414"/>
    <rect x="440" y="100" width="100" height="5" rx="1" fill="#f9f4da" opacity="0.5"/>
    <rect x="440" y="112" width="60" height="4" rx="1" fill="#f9f4da" opacity="0.85"/>
    <!-- Avatar -->
    <circle cx="740" cy="109" r="20" fill="#fcba2820" stroke="#fcba28" stroke-width="1"/>
    <rect x="728" y="106" width="24" height="6" rx="1" fill="#fcba28" opacity="0.4"/>

    <!-- Balance hero -->
    <rect x="420" y="144" width="360" height="110" fill="#0d0d0d"/>
    <rect x="440" y="156" width="80" height="4" rx="1" fill="#909498" opacity="0.5"/>
    <!-- Big balance number -->
    <rect x="440" y="168" width="200" height="24" rx="2" fill="#f9f4da" opacity="0.95"/>
    <!-- Change indicator -->
    <rect x="440" y="200" width="80" height="22" rx="11" fill="#4cba7d18" stroke="#4cba7d" stroke-width="1"/>
    <path d="M 452 215 l 6-8 6 8" stroke="#4cba7d" stroke-width="1.5" fill="none" stroke-linecap="round"/>
    <rect x="467" y="208" width="44" height="5" rx="1" fill="#4cba7d" opacity="0.9"/>
    <rect x="528" y="204" width="80" height="4" rx="1" fill="#909498" opacity="0.45"/>

    <!-- Chart area -->
    <rect x="420" y="254" width="360" height="140" fill="#141414"/>
    <!-- Chart month labels -->
    <rect x="440" y="376" width="20" height="4" rx="1" fill="#909498" opacity="0.35"/>
    <rect x="490" y="376" width="20" height="4" rx="1" fill="#909498" opacity="0.35"/>
    <rect x="540" y="376" width="20" height="4" rx="1" fill="#909498" opacity="0.35"/>
    <rect x="590" y="376" width="20" height="4" rx="1" fill="#909498" opacity="0.35"/>
    <rect x="640" y="376" width="20" height="4" rx="1" fill="#909498" opacity="0.35"/>
    <rect x="690" y="376" width="20" height="4" rx="1" fill="#909498" opacity="0.35"/>
    <rect x="740" y="376" width="20" height="4" rx="1" fill="#909498" opacity="0.35"/>
    <!-- Chart fill area -->
    <path d="M 436 358 L 462 342 L 510 338 L 558 322 L 606 308 L 654 296 L 702 278 L 750 264 L 764 264 L 764 370 L 436 370 Z" fill="url(#chartFill)"/>
    <!-- Chart line -->
    <polyline points="436,358 462,342 510,338 558,322 606,308 654,296 702,278 750,264 764,264" stroke="#fcba28" stroke-width="2" fill="none" stroke-linecap="round" stroke-linejoin="round"/>
    <!-- Data point highlight -->
    <circle cx="764" cy="264" r="5" fill="#fcba28"/>
    <circle cx="764" cy="264" r="9" fill="#fcba28" opacity="0.2"/>
    <!-- Tooltip -->
    <rect x="722" y="240" width="80" height="20" rx="4" fill="#fcba28"/>
    <rect x="730" y="246" width="64" height="4" rx="1" fill="#0d0d0d"/>
    <path d="M 760 260 l 4 6 4-6" fill="#fcba28"/>

    <!-- Separator -->
    <rect x="420" y="394" width="360" height="1" fill="#383c44"/>

    <!-- Transaction list header -->
    <rect x="420" y="394" width="360" height="40" fill="#141414"/>
    <rect x="440" y="410" width="100" height="5" rx="1" fill="#f9f4da" opacity="0.8"/>
    <rect x="700" y="408" width="60" height="9" rx="4.5" fill="#fcba2815" stroke="#fcba28" stroke-width="1"/>
    <rect x="707" y="411" width="46" height="3" rx="1" fill="#fcba28" opacity="0.75"/>

    <!-- Transaction items -->
    <rect x="420" y="434" width="360" height="52" fill="#0d0d0d"/>
    <rect x="440" y="452" width="32" height="32" rx="16" fill="#fcba2818" stroke="#fcba28" stroke-width="1"/>
    <rect x="448" y="465" width="16" height="4" rx="1" fill="#fcba28" opacity="0.5"/>
    <rect x="484" y="452" width="100" height="5" rx="1" fill="#f9f4da" opacity="0.85"/>
    <rect x="484" y="464" width="70" height="4" rx="1" fill="#909498" opacity="0.5"/>
    <rect x="680" y="452" width="80" height="5" rx="1" fill="#e05a5a" opacity="0.85"/>
    <rect x="680" y="464" width="60" height="4" rx="1" fill="#909498" opacity="0.4"/>

    <rect x="420" y="486" width="360" height="1" fill="#383c44" opacity="0.5"/>

    <rect x="420" y="487" width="360" height="52" fill="#0d0d0d"/>
    <rect x="440" y="505" width="32" height="32" rx="16" fill="#4cba7d18" stroke="#4cba7d" stroke-width="1"/>
    <rect x="448" y="518" width="16" height="4" rx="1" fill="#4cba7d" opacity="0.5"/>
    <rect x="484" y="505" width="80" height="5" rx="1" fill="#f9f4da" opacity="0.85"/>
    <rect x="484" y="517" width="60" height="4" rx="1" fill="#909498" opacity="0.5"/>
    <rect x="684" y="505" width="76" height="5" rx="1" fill="#4cba7d" opacity="0.85"/>
    <rect x="684" y="517" width="60" height="4" rx="1" fill="#909498" opacity="0.4"/>

    <rect x="420" y="539" width="360" height="1" fill="#383c44" opacity="0.5"/>

    <rect x="420" y="540" width="360" height="52" fill="#0d0d0d"/>
    <rect x="440" y="558" width="32" height="32" rx="16" fill="#383c44"/>
    <rect x="448" y="571" width="16" height="4" rx="1" fill="#909498" opacity="0.4"/>
    <rect x="484" y="558" width="90" height="5" rx="1" fill="#f9f4da" opacity="0.85"/>
    <rect x="484" y="570" width="50" height="4" rx="1" fill="#909498" opacity="0.5"/>
    <rect x="680" y="558" width="80" height="5" rx="1" fill="#e05a5a" opacity="0.85"/>
    <rect x="680" y="570" width="60" height="4" rx="1" fill="#909498" opacity="0.4"/>

    <!-- Bottom nav -->
    <rect x="420" y="592" width="360" height="56" fill="#141414"/>
    <rect x="420" y="592" width="360" height="1" fill="#383c44"/>
    <!-- Nav icons -->
    <rect x="452" y="606" width="20" height="20" rx="3" fill="#fcba28" opacity="0.15"/>
    <rect x="458" y="612" width="8" height="8" rx="1" fill="#fcba28" opacity="0.9"/>
    <rect x="540" y="608" width="18" height="18" rx="9" fill="none" stroke="#909498" stroke-width="1" opacity="0.4"/>
    <rect x="628" y="608" width="18" height="18" rx="2" fill="none" stroke="#909498" stroke-width="1" opacity="0.4"/>
    <rect x="716" y="608" width="18" height="18" rx="9" fill="none" stroke="#909498" stroke-width="1" opacity="0.4"/>
  </g>

  <!-- Phone notch/frame overlay -->
  <rect x="420" y="40" width="360" height="595" rx="36" fill="none" stroke="#383c44" stroke-width="2"/>
  <!-- Side buttons -->
  <rect x="416" y="160" width="4" height="40" rx="2" fill="#2a2a2a"/>
  <rect x="416" y="210" width="4" height="60" rx="2" fill="#2a2a2a"/>
  <rect x="780" y="180" width="4" height="80" rx="2" fill="#2a2a2a"/>
</svg>
